<?xml version="1.0" encoding="UTF-8" standalone="no"?><!DOCTYPE svg PUBLIC "-//W3C//DTD SVG 1.1//EN" "http://www.w3.org/Graphics/SVG/1.1/DTD/svg11.dtd"><svg xmlns="http://www.w3.org/2000/svg" xmlns:xlink="http://www.w3.org/1999/xlink" version="1.1" width="925" height="694" viewBox="297 612 925 694">
<desc>Created with SVGMaker Editor 3.0.0</desc>
<defs>
</defs>
<path transform="translate(0,0)" style="fill: rgb(0,0,0)" stroke-linecap="round" d="M309.5 612.9C303.5 614.4 300.3 616.8 298.6 621.1 297 625 297 625.4 298.6 627.9 299.6 629.3 300.3 631.9 300.2 633.7 300 635.5 300.6 638.6 301.5 640.6 302.3 642.6 303 645.6 303 647.3 303 648.9 304.1 651.7 305.4 653.4 306.7 655.1 308.3 659.2 309 662.5 310.5 669.1 315.9 680.8 318.5 683 319.5 683.8 321.3 686.9 322.7 689.9 324 693 325.9 696.4 326.9 697.5 327.9 698.6 330.4 702.8 332.5 706.8 334.6 710.8 337.8 716 339.6 718.3 341.5 720.6 343 723 343 723.7 343 726.1 348.7 733.8 354.9 739.8 358.3 743.2 362.5 748 364.2 750.6 368.3 757.2 389.6 777.9 394.5 780.1 396.7 781.1 400.8 782.4 403.5 783 407 783.8 409.2 785 411 787.2 414 790.8 421.2 792.5 437.5 793.6 443 794 448.4 794.7 449.4 795.2 452.4 796.8 464.9 798.3 472.5 798.1 476.3 798 484.1 797 489.9 795.9 495.7 794.9 504.8 794 510.2 794 521.8 794 537.5 791.7 544.5 789 550.2 786.8 555.7 785.8 579.5 783.1 588.9 782 601 780.4 606.5 779.6 653 772.6 787 768.9 867.7 772.5 915.1 774.6 967.1 776 997 776 1022.4 776 1039.9 777.4 1069 781.6 1095.7 785.4 1096.6 785.7 1113 795.9 1115.6 797.4 1119.9 799.5 1122.8 800.4 1125.6 801.4 1128.2 802.6 1128.6 803.1 1130.2 805.8 1141.1 809.7 1150.2 810.9 1155.5 811.7 1160.2 812 1160.7 811.7 1161.2 811.3 1164.5 810.8 1168.1 810.5 1175.8 809.7 1182.5 806.7 1184.7 803.1 1185.6 801.7 1187.4 799.3 1188.8 797.9 1190.2 796.3 1191.4 793.5 1191.7 790.9 1192 788.5 1192.9 785.7 1193.7 784.8 1196 782.2 1196.9 776.2 1195.9 770.6 1195.3 767.8 1194.4 762.1 1193.9 758 1193.3 753.9 1192.2 749.5 1191.4 748.3 1190.6 747.1 1190 745.4 1190 744.5 1190 742.3 1186.3 735.3 1184.9 734.8 1184.3 734.6 1183.6 732.8 1183.5 730.9 1183.2 727.5 1181.3 722.5 1178.8 718.5 1170.9 706 1155 689.4 1145.9 683.9 1142.9 682.1 1138.9 679.2 1137 677.5 1135.1 675.7 1130.6 672.6 1127 670.6 1123.4 668.5 1118.3 665.3 1115.6 663.4 1112.9 661.5 1108.2 659.3 1105.1 658.4 1102 657.5 1098.8 656.2 1098 655.5 1097.2 654.7 1093.6 652.8 1090 651.2 1086.4 649.6 1081.1 646.6 1078.2 644.7 1075.3 642.7 1071.2 640.8 1069.2 640.4 1067.2 640.1 1062.7 638.5 1059.3 636.9 1055.9 635.4 1049.7 633.4 1045.5 632.5 1029.9 629.3 1020.8 634.9 1019.5 648.6 1019 653.9 1017.7 655.4 1012 657 1004.3 659.2 983.8 662.2 957.5 665 952 665.6 943.3 665.8 938 665.5 932.8 665.2 917.5 664.5 904 664 849.7 661.6 781.6 657.1 753 653.9 735.8 652 729.3 651.3 710 649 705.9 648.5 688.8 646.5 672 644.6 655.2 642.6 638.4 640.6 634.5 640 630.7 639.4 619.4 638 609.5 636.9 559.9 631.4 545.1 629.5 512.5 624.8 477.3 619.8 472.9 619.3 443.5 617.5 425.2 616.4 418 615.6 413.2 614 407.1 612.1 404.5 612 359.7 612.1 333.7 612.2 311.2 612.5 309.5 612.9Z"/>
<path transform="translate(0,0)" style="fill: rgb(0,0,0)" stroke-linecap="round" d="M318.9 834.3C314.8 837 313 842.2 315 845.3 315.7 846.5 316.2 849.2 316.2 851.3 316.1 853.4 316.7 856.4 317.5 858 318.3 859.6 319 862.4 319 864.2 319 866 320.6 870.6 322.5 874.4 324.4 878.3 326 882.1 326 882.9 326 886.4 331.3 897.9 334.9 902.2 337 904.8 339.1 908.2 339.4 909.6 339.8 911.1 341.4 914.2 342.9 916.4 344.5 918.7 348.1 924.4 350.9 929.2 353.8 934 356.5 938.2 357.1 938.6 357.6 938.9 359.4 941.9 361 945.3 362.7 948.8 367.1 955 371.2 959.6 375.2 964 381.1 970.9 384.3 974.7 390.8 982.7 403.4 994.4 409.5 998.2 411.7 999.5 415.5 1001.4 418 1002.4 420.5 1003.4 425 1005.7 428 1007.5 431 1009.4 435.4 1011.3 437.8 1011.9 440.1 1012.5 443.7 1013.4 445.8 1014 452.3 1015.7 483.7 1018.9 505.5 1020.1 527.3 1021.3 569.2 1020.7 593.5 1019 629.3 1016.3 702.9 1015 812 1015 912.9 1015 942.3 1015.4 1003 1017.5 1051.6 1019.2 1064 1020.5 1105.9 1028.5 1123.4 1031.8 1126.1 1032.5 1135 1036.7 1142.7 1040.3 1144.3 1041.6 1143.5 1043.7 1142.8 1045.8 1150.9 1049.2 1158.7 1050.1 1167.2 1051 1168.6 1051.6 1167 1053.5 1166.2 1054.5 1167.5 1054.9 1173.7 1055.6 1178 1056.1 1182.4 1056.4 1183.5 1056.2 1184.6 1056.1 1188.4 1055.8 1192 1055.7 1196.9 1055.4 1199.4 1054.7 1202 1053 1205.2 1050.7 1212 1041.9 1212 1039.9 1212 1038.8 1209.7 1038.7 1208.4 1039.8 1207.6 1040.6 1200.1 1043 1198.6 1043 1198.3 1043 1198 1042.4 1198 1041.6 1198 1040.1 1205.5 1036 1208.1 1036 1210.7 1036 1215.7 1030.7 1216.3 1027.2 1216.7 1025.5 1216.5 1022.8 1215.9 1021.2 1215.3 1019.7 1214.4 1015.2 1213.9 1011.2 1212.8 1001.7 1212.2 1000 1210.1 1000 1209.2 1000 1207.5 999.4 1206.5 998.6 1204.7 997.3 1204.7 997.2 1206.8 996.1 1210.8 994 1208.4 987 1203.6 987 1201.3 987 1200.4 984.2 1202.2 982.3 1204.2 980.3 1202.9 974.2 1200.1 972 1198.9 971.2 1197.2 969.1 1196.2 967.4 1191.8 959.6 1190.3 957.3 1187.4 954.5 1176.9 944.2 1170.4 938.7 1166.2 936.6 1163.6 935.3 1160.4 933 1159 931.5 1157.6 930 1154.3 927.7 1151.5 926.5 1148.8 925.2 1145.6 923.2 1144.5 922 1141.4 918.5 1128.8 913 1123.8 913 1119 913 1117.5 912.2 1117.5 910 1117.5 908.7 1112.9 905.7 1100 898.7 1097.5 897.3 1092.5 895.6 1089 894.9 1085.4 894.2 1081.4 892.8 1079.9 891.8 1073.6 887.2 1060.1 886 1056.7 889.8 1054.3 892.4 1053.4 897 1055.3 897 1057.5 897 1058.2 901.1 1056.3 903.2 1053.9 905.9 1049.7 906.8 1035.4 907.9 1007.5 910.1 982.4 910.3 965.5 908.6 944.4 906.5 872.9 900.6 836.5 898 791 894.8 720.6 888.1 672.5 882.4 651.2 879.9 645.6 879.2 576.5 869.6 555.1 866.6 529.9 863.2 520.5 862 511.2 860.8 497.9 859 491 857.9 484.1 856.9 466.8 854.6 452.5 853 402.5 847.1 379.4 843.4 355.9 837.5 330.8 831.2 324.3 830.7 318.9 834.3Z"/>
<path transform="translate(0,0)" style="fill: rgb(0,0,0)" stroke-linecap="round" d="M314.5 1080.4C312.5 1081.2 310.8 1083.2 309.6 1085.7 307.9 1089.5 307.9 1089.9 309.5 1092.9 310.5 1095 310.9 1097.2 310.5 1099 310.1 1100.9 310.6 1103.2 311.9 1105.9 313.1 1108.1 314 1111.3 314 1113.1 314 1114.8 314.9 1117.5 316 1119.1 317.2 1120.6 318.8 1125.2 319.6 1129.1 321.3 1137.1 323.3 1141.7 328 1147.5 329.8 1149.7 332.5 1154.3 334.1 1157.7 335.6 1161 337.3 1164.1 337.8 1164.4 338.3 1164.7 340.2 1167.9 342.1 1171.6 344 1175.2 347.4 1180.4 349.8 1183.2 352.1 1185.9 354 1189 354 1190 354 1190.9 354.7 1192.3 355.5 1193 356.3 1193.7 357 1194.9 357 1195.7 357 1196.6 360.6 1200.9 365 1205.4 369.3 1209.8 374.4 1215.5 376.1 1218 379.9 1223.4 398.1 1241.3 403 1244.6 404.9 1245.9 409.2 1247.8 412.5 1248.8 415.8 1249.8 419.7 1251.8 421.1 1253.2 424.5 1256.6 436.8 1259.8 451.5 1261 458.1 1261.5 469.6 1262.5 477 1263.1 488.3 1264.1 493.8 1264 511 1262.6 557.7 1258.8 578.8 1257.9 645 1256.9 705.6 1255.9 796.7 1256.2 804 1257.4 805.4 1257.6 817.3 1258.1 830.5 1258.5 843.7 1258.8 856.5 1259.3 859 1259.5 861.5 1259.7 870.9 1260.2 880 1260.5 929 1262.2 986.7 1266.7 1064 1275 1108.2 1279.7 1135.4 1285.4 1153.5 1293.7 1159 1296.2 1165.5 1298.5 1168 1298.8 1171 1299.1 1173.3 1300 1174.8 1301.6 1176.5 1303.4 1178.1 1304 1181.6 1304 1184.1 1304 1187 1304.5 1188.1 1305.1 1189.6 1305.9 1190.5 1305.8 1191.6 1304.9 1192.7 1304 1194 1304 1196.8 1304.8 1201.4 1306.2 1207 1306.9 1206.5 1306 1206.3 1305.6 1207.4 1304 1209 1302.5 1210.7 1300.9 1212 1299.1 1212 1298.4 1212 1297.7 1213.4 1295.6 1215 1293.8 1218 1290.6 1218.9 1288 1217.1 1288 1216.6 1288 1214 1288.9 1211.4 1290 1208.8 1291.1 1206.5 1291.8 1206.2 1291.5 1205.2 1290.5 1209.3 1287.1 1212.4 1286.4 1214.1 1286.1 1217.2 1284.8 1219.3 1283.7 1222.4 1281.9 1223 1281.1 1223 1278.3 1223 1276.4 1222.4 1273.7 1221.6 1272.2 1220.8 1270.5 1220.2 1265.6 1220.1 1259 1220 1248.7 1220 1248.6 1216.8 1245.3 1215 1243.4 1212.5 1241.7 1211.3 1241.4 1208.6 1240.7 1208.5 1240.2 1210.7 1237.8 1214.2 1233.9 1212.8 1229.7 1203.8 1216.7 1202.4 1214.7 1193.5 1205.5 1190.4 1202.9 1189.4 1201.9 1187.6 1200.1 1186.4 1198.9 1185.3 1197.6 1182.4 1195.4 1180 1194 1177.6 1192.6 1174 1189.8 1171.9 1187.7 1169.8 1185.7 1167.1 1184 1165.8 1183.9 1161.8 1183.8 1155 1180.5 1151 1176.8 1147.9 1173.8 1127.8 1163 1125.5 1163 1125.2 1163 1122.4 1161.4 1119.3 1159.4 1116.2 1157.4 1109.6 1154.5 1104.6 1152.8 1099.7 1151.2 1094.4 1149.2 1092.9 1148.4 1089.6 1146.7 1082.1 1146.6 1078.7 1148.1 1077.4 1148.7 1075.5 1150.7 1074.5 1152.7 1072 1157.3 1069.2 1158.5 1058 1159.8 1038.4 1162.1 1031.2 1162.1 1002.5 1160.1 986.6 1159 951 1156.7 923.5 1155 869.1 1151.7 864.3 1151.3 790.5 1143.9 704.1 1135.3 673.8 1132.1 662.5 1130.6 656.5 1129.8 638 1127.3 621.5 1125 605 1122.8 590.4 1120.8 589 1120.5 586.8 1120.1 555.3 1115.4 518 1110 500.8 1107.5 479.2 1104 457 1100.1 439.6 1097.1 419.8 1094.3 395.9 1091.5 389 1090.7 371.5 1087.6 357 1084.5 329.6 1078.8 320.2 1077.9 314.5 1080.4Z"/>
</svg>