<?xml version="1.0" standalone="no"?>
<!DOCTYPE svg PUBLIC "-//W3C//DTD SVG 20010904//EN"
 "http://www.w3.org/TR/2001/REC-SVG-20010904/DTD/svg10.dtd">
<svg version="1.0" xmlns="http://www.w3.org/2000/svg"
 width="1500.000000pt" height="2000.000000pt" viewBox="0 0 1500.000000 2000.000000"
 preserveAspectRatio="xMidYMid meet">

<g transform="translate(0.000000,2000.000000) scale(0.100000,-0.100000)"
fill="#000000" stroke="none">
<path d="M3095 13871 c-60 -15 -92 -39 -109 -82 -16 -39 -16 -43 0 -68 10 -14
17 -40 16 -58 -2 -18 4 -49 13 -69 8 -20 15 -50 15 -67 0 -16 11 -44 24 -61
13 -17 29 -58 36 -91 15 -66 69 -183 95 -205 10 -8 28 -39 42 -69 13 -31 32
-65 42 -76 10 -11 35 -53 56 -93 21 -40 53 -92 71 -115 19 -23 34 -47 34 -54
0 -24 57 -101 119 -161 34 -34 76 -82 93 -108 41 -66 254 -273 303 -295 22
-10 63 -23 90 -29 35 -8 57 -20 75 -42 30 -36 102 -53 265 -64 55 -4 109 -11
119 -16 30 -16 155 -31 231 -29 38 1 116 11 174 22 58 10 149 19 203 19 116 0
273 23 343 50 57 22 112 32 350 59 94 11 215 27 270 35 465 70 1805 107 2612
71 474 -21 994 -35 1293 -35 254 0 429 -14 720 -56 267 -38 276 -41 440 -143
26 -15 69 -36 98 -45 28 -10 54 -22 58 -27 16 -27 125 -66 216 -78 53 -8 100
-11 105 -8 5 4 38 9 74 12 77 8 144 38 166 74 9 14 27 38 41 52 14 16 26 44
29 70 3 24 12 52 20 61 23 26 32 86 22 142 -6 28 -15 85 -20 126 -6 41 -17 85
-25 97 -8 12 -14 29 -14 38 0 22 -37 92 -51 97 -6 2 -13 20 -14 39 -3 34 -22
84 -47 124 -79 125 -238 291 -329 346 -30 18 -70 47 -89 64 -19 18 -64 49
-100 69 -36 21 -87 53 -114 72 -27 19 -74 41 -105 50 -31 9 -63 22 -71 29 -8
8 -44 27 -80 43 -36 16 -89 46 -118 65 -29 20 -70 39 -90 43 -20 3 -65 19 -99
35 -34 15 -96 35 -138 44 -156 32 -247 -24 -260 -161 -5 -53 -18 -68 -75 -84
-77 -22 -282 -52 -545 -80 -55 -6 -142 -8 -195 -5 -52 3 -205 10 -340 15 -543
24 -1224 69 -1510 101 -172 19 -237 26 -430 49 -41 5 -212 25 -380 44 -168 20
-336 40 -375 46 -38 6 -151 20 -250 31 -496 55 -644 74 -970 121 -352 50 -396
55 -690 73 -183 11 -255 19 -303 35 -61 19 -87 20 -535 19 -260 -1 -485 -4
-502 -8z"/>
<path d="M3189 11657 c-41 -27 -59 -79 -39 -110 7 -12 12 -39 12 -60 -1 -21 5
-51 13 -67 8 -16 15 -44 15 -62 0 -18 16 -64 35 -102 19 -39 35 -77 35 -85 0
-35 53 -150 89 -193 21 -26 42 -60 45 -74 4 -15 20 -46 35 -68 16 -23 52 -80
80 -128 29 -48 56 -90 62 -94 5 -3 23 -33 39 -67 17 -35 61 -97 102 -143 40
-44 99 -113 131 -151 65 -80 191 -197 252 -235 22 -13 60 -32 85 -42 25 -10
70 -33 100 -51 30 -19 74 -38 98 -44 23 -6 59 -15 80 -21 65 -17 379 -49 597
-61 218 -12 637 -6 880 11 358 27 1094 40 2185 40 1009 0 1303 -4 1910 -25
486 -17 610 -30 1029 -110 175 -33 202 -40 291 -82 77 -36 93 -49 85 -70 -7
-21 74 -55 152 -64 85 -9 99 -15 83 -34 -8 -10 5 -14 67 -21 43 -5 87 -8 98
-6 11 1 49 4 85 5 49 3 74 10 100 27 32 23 100 111 100 131 0 11 -23 12 -36 1
-8 -8 -83 -32 -98 -32 -3 0 -6 6 -6 14 0 15 75 56 101 56 26 0 76 53 82 88 4
17 2 44 -4 60 -6 15 -15 60 -20 100 -11 95 -17 112 -38 112 -9 0 -26 6 -36 14
-18 13 -18 14 3 25 40 21 16 91 -32 91 -23 0 -32 28 -14 47 20 20 7 81 -21
103 -12 8 -29 29 -39 46 -44 78 -59 101 -88 129 -105 103 -170 158 -212 179
-26 13 -58 36 -72 51 -14 15 -47 38 -75 50 -27 13 -59 33 -70 45 -31 35 -157
90 -207 90 -48 0 -63 8 -63 30 0 13 -46 43 -175 113 -25 14 -75 31 -110 38
-36 7 -76 21 -91 31 -63 46 -198 58 -232 20 -24 -26 -33 -72 -14 -72 22 0 29
-41 10 -62 -24 -27 -66 -36 -209 -47 -279 -22 -530 -24 -699 -7 -211 21 -926
80 -1290 106 -455 32 -1159 99 -1640 156 -213 25 -269 32 -960 128 -214 30
-466 64 -560 76 -93 12 -226 30 -295 41 -69 10 -242 33 -385 49 -500 59 -731
96 -966 155 -251 63 -316 68 -370 32z"/>
<path d="M3145 9196 c-20 -8 -37 -28 -49 -53 -17 -38 -17 -42 -1 -72 10 -21
14 -43 10 -61 -4 -19 1 -42 14 -69 12 -22 21 -54 21 -72 0 -17 9 -44 20 -60
12 -15 28 -61 36 -100 17 -80 37 -126 84 -184 18 -22 45 -68 61 -102 15 -33
32 -64 37 -67 5 -3 24 -35 43 -72 19 -36 53 -88 77 -116 23 -27 42 -58 42 -68
0 -9 7 -23 15 -30 8 -7 15 -19 15 -27 0 -9 36 -52 80 -97 43 -44 94 -101 111
-126 38 -54 220 -233 269 -266 19 -13 62 -32 95 -42 33 -10 72 -30 86 -44 34
-34 157 -66 304 -78 66 -5 181 -15 255 -21 113 -10 168 -9 340 5 467 38 678
47 1340 57 606 10 1517 7 1590 -5 14 -2 133 -7 265 -11 132 -3 260 -8 285 -10
25 -2 119 -7 210 -10 490 -17 1067 -62 1840 -145 442 -47 714 -104 895 -187
55 -25 120 -48 145 -51 30 -3 53 -12 68 -28 17 -18 33 -24 68 -24 25 0 54 -5
65 -11 15 -8 24 -7 35 2 11 9 24 9 52 1 46 -14 102 -21 97 -12 -2 4 9 20 25
35 17 16 30 34 30 41 0 7 14 28 30 46 30 32 39 58 21 58 -5 0 -31 -9 -57 -20
-26 -11 -49 -18 -52 -15 -10 10 31 44 62 51 17 3 48 16 69 27 31 18 37 26 37
54 0 19 -6 46 -14 61 -8 17 -14 66 -15 132 -1 103 -1 104 -33 137 -18 19 -43
36 -55 39 -27 7 -28 12 -6 36 35 39 21 81 -69 211 -14 20 -103 112 -134 138
-10 10 -28 28 -40 40 -11 13 -40 35 -64 49 -24 14 -60 42 -81 63 -21 20 -48
37 -61 38 -40 1 -108 34 -148 71 -31 30 -232 138 -255 138 -3 0 -31 16 -62 36
-31 20 -97 49 -147 66 -49 16 -102 36 -117 44 -33 17 -108 18 -142 3 -13 -6
-32 -26 -42 -46 -25 -46 -53 -58 -165 -71 -196 -23 -268 -23 -555 -3 -159 11
-515 34 -790 51 -544 33 -592 37 -1330 111 -864 86 -1167 118 -1280 133 -60 8
-245 33 -410 56 -165 22 -311 42 -325 45 -22 4 -337 51 -710 105 -172 25 -388
60 -610 99 -174 30 -372 58 -611 86 -69 8 -244 39 -389 70 -274 57 -368 66
-425 41z"/>
</g>
</svg>
