<?xml version="1.0" standalone="no"?>
<!DOCTYPE svg PUBLIC "-//W3C//DTD SVG 20010904//EN"
 "http://www.w3.org/TR/2001/REC-SVG-20010904/DTD/svg10.dtd">
<svg version="1.0" xmlns="http://www.w3.org/2000/svg"
 width="1500.000000pt" height="2000.000000pt" viewBox="0 0 1500.000000 2000.000000"
 preserveAspectRatio="xMidYMid meet">

<g transform="translate(0.000000,2000.000000) scale(0.100000,-0.100000)"
fill="#000000" stroke="none">
<path d="M6670 14739 c-572 -38 -1114 -221 -1600 -540 -183 -119 -345 -254
-527 -438 -434 -437 -749 -1032 -867 -1638 -57 -290 -61 -349 -61 -883 0 -499
4 -582 41 -810 47 -283 162 -636 294 -900 241 -480 575 -878 992 -1182 466
-341 938 -529 1538 -614 151 -22 916 -31 1130 -14 553 43 1046 204 1499 487
428 269 762 601 1036 1033 198 311 358 706 430 1061 55 268 66 397 72 805 9
654 -26 956 -159 1372 -132 415 -348 802 -628 1126 -303 350 -712 661 -1103
837 -391 176 -750 267 -1172 299 -161 11 -731 11 -915 -1z m597 -544 c251 -32
470 -83 695 -163 445 -158 835 -401 1172 -731 219 -216 338 -362 487 -599 232
-368 396 -805 461 -1227 27 -181 27 -323 -1 -495 -95 -577 -325 -1095 -690
-1549 -96 -121 -316 -342 -446 -450 -463 -384 -1050 -639 -1648 -716 -154 -20
-204 -19 -370 5 -193 29 -311 54 -466 101 -409 122 -779 316 -1121 587 -122
96 -381 357 -488 490 -269 336 -474 734 -592 1152 -51 183 -74 297 -96 478
-16 126 -16 158 -5 260 51 471 214 944 463 1342 188 301 423 572 683 789 445
370 1030 634 1578 711 242 34 238 34 384 15z"/>
<path d="M7026 14078 c-16 -9 -17 -22 -11 -176 8 -206 9 -212 40 -212 13 0 27
5 30 11 4 5 4 91 0 190 -6 152 -10 181 -24 188 -10 6 -24 5 -35 -1z"/>
<path d="M6600 14056 c-5 -13 -7 -32 -4 -42 2 -11 56 -540 120 -1177 l115
-1158 -63 -67 c-97 -103 -137 -201 -138 -333 0 -179 107 -346 275 -426 68 -32
88 -37 174 -41 107 -5 181 10 260 54 24 13 47 24 52 24 5 0 347 -157 760 -350
414 -192 759 -350 766 -350 31 0 53 21 53 50 0 26 -49 63 -668 508 -368 264
-678 486 -690 493 -16 10 -22 24 -22 49 -1 115 -63 253 -152 336 -70 64 -134
99 -219 118 -33 8 -63 16 -64 18 -2 2 -108 514 -235 1138 -127 624 -235 1145
-240 1158 -14 32 -67 31 -80 -2z m638 -2505 c139 -72 208 -217 168 -356 -24
-81 -100 -157 -181 -181 -189 -54 -384 73 -411 268 -15 105 55 224 161 275 43
21 61 24 135 20 63 -2 96 -9 128 -26z"/>
<path d="M7067 11352 c-26 -28 -22 -97 5 -116 31 -22 60 -20 93 6 23 18 26 26
21 56 -3 19 -13 43 -22 53 -22 24 -76 25 -97 1z"/>
<path d="M8449 13660 c-9 -5 -29 -33 -44 -62 -15 -29 -45 -79 -66 -110 -44
-64 -48 -83 -20 -97 29 -16 64 23 135 151 20 36 44 69 52 72 9 4 14 15 12 28
-3 26 -41 35 -69 18z"/>
<path d="M5267 13303 c-11 -11 -8 -42 6 -50 13 -9 71 -81 78 -98 2 -5 33 -54
69 -108 56 -84 68 -97 90 -95 44 5 34 37 -50 161 -44 65 -80 121 -80 125 0 4
-13 22 -29 40 -28 30 -68 42 -84 25z"/>
<path d="M9464 12594 c-27 -14 -64 -38 -84 -53 -19 -16 -46 -34 -59 -41 -14
-7 -34 -21 -45 -31 -11 -11 -26 -19 -33 -19 -7 0 -19 -11 -25 -25 -9 -21 -9
-29 5 -42 15 -15 19 -15 52 3 20 10 44 26 53 34 25 22 139 100 147 100 14 0
75 53 75 66 0 7 -9 18 -19 23 -14 8 -30 5 -67 -15z"/>
<path d="M4487 12334 c-15 -15 -6 -45 16 -53 127 -52 289 -111 302 -111 9 0
25 -5 36 -11 26 -13 59 -2 59 20 0 26 -15 35 -110 69 -47 16 -116 42 -155 57
-75 29 -135 41 -148 29z"/>
<path d="M9483 11429 c-17 -17 -16 -24 2 -42 11 -12 43 -15 132 -16 65 -1 143
-3 173 -6 30 -3 79 -7 109 -10 63 -5 93 7 89 38 -3 19 -11 23 -68 29 -36 3
-146 9 -245 13 -141 5 -183 4 -192 -6z"/>
<path d="M4317 11271 c-70 -6 -93 -21 -77 -51 7 -13 40 -15 252 -11 233 3 257
6 258 33 0 4 -7 13 -15 22 -12 12 -46 14 -182 14 -93 -1 -199 -4 -236 -7z"/>
<path d="M9436 10288 c-21 -12 -20 -45 2 -56 9 -5 49 -17 87 -26 39 -10 104
-29 147 -43 42 -14 83 -23 92 -20 25 10 20 54 -6 62 -13 4 -36 13 -53 20 -62
28 -253 72 -269 63z"/>
<path d="M5104 9871 c-59 -32 -92 -54 -187 -125 -49 -37 -67 -56 -65 -71 6
-38 49 -30 119 23 129 98 144 107 173 118 38 13 55 38 40 61 -16 26 -25 25
-80 -6z"/>
<path d="M8346 9175 c-7 -19 2 -44 25 -70 10 -11 48 -79 84 -150 37 -72 70
-134 75 -138 14 -15 50 3 50 24 0 25 -101 228 -148 297 -36 53 -73 69 -86 37z"/>
<path d="M6028 8963 c-8 -10 -23 -54 -32 -98 -10 -44 -27 -100 -38 -123 -20
-46 -18 -69 7 -78 33 -13 58 33 95 176 6 25 16 60 22 78 16 52 -21 83 -54 45z"/>
<path d="M7063 8804 c-3 -9 0 -118 8 -242 14 -223 14 -227 36 -230 40 -6 47
29 34 178 -6 73 -11 167 -11 209 0 47 -5 82 -12 89 -17 17 -48 15 -55 -4z"/>
</g>
</svg>
