<?xml version="1.0" encoding="UTF-8" standalone="no"?><!DOCTYPE svg PUBLIC "-//W3C//DTD SVG 1.1//EN" "http://www.w3.org/Graphics/SVG/1.1/DTD/svg11.dtd"><svg xmlns="http://www.w3.org/2000/svg" xmlns:xlink="http://www.w3.org/1999/xlink" version="1.1" width="703" height="703" viewBox="361 525 703 703">
<desc>Created with SVGMaker Editor 3.0.0</desc>
<defs>
</defs>
<path transform="translate(0,0)" style="fill:rgb(22, 19, 43)" stroke-linecap="round" d="M667 526.1C609.8 529.9 555.6 548.2 507 580.1 488.7 592 472.5 605.5 454.3 623.9 410.9 667.6 379.4 727.1 367.6 787.7 361.9 816.7 361.5 822.6 361.5 876 361.5 925.9 361.9 934.2 365.6 957 370.3 985.3 381.8 1020.6 395 1047 419.1 1095 452.5 1134.8 494.2 1165.2 540.8 1199.3 588 1218.1 648 1226.6 663.1 1228.8 739.6 1229.7 761 1228 816.3 1223.7 865.6 1207.6 910.9 1179.3 953.7 1152.4 987.1 1119.2 1014.5 1076 1034.3 1044.9 1050.3 1005.4 1057.5 969.9 1063 943.1 1064.1 930.2 1064.7 889.4 1065.6 824 1062.1 793.8 1048.8 752.2 1035.6 710.7 1014 672 986 639.6 955.7 604.6 914.8 573.5 875.7 555.9 836.6 538.3 800.7 529.2 758.5 526 742.4 524.9 685.4 524.9 667 526.1ZM726.7 580.5C751.8 583.7 773.7 588.8 796.2 596.8 840.7 612.6 879.7 636.9 913.4 669.9 935.3 691.5 947.2 706.1 962.1 729.8 985.3 766.6 1001.7 810.3 1008.2 852.5 1010.9 870.6 1010.9 884.8 1008.1 902 998.6 959.7 975.6 1011.5 939.1 1056.9 929.5 1069 907.5 1091.1 894.5 1101.9 848.2 1140.3 789.5 1165.8 729.7 1173.5 714.3 1175.5 709.3 1175.4 692.7 1173 673.4 1170.1 661.6 1167.6 646.1 1162.9 605.2 1150.7 568.2 1131.3 534 1104.2 521.8 1094.6 495.9 1068.5 485.2 1055.2 458.3 1021.6 437.8 981.8 426 940 420.9 921.7 418.6 910.3 416.4 892.2 414.8 879.6 414.8 876.4 415.9 866.2 421 819.1 437.3 771.8 462.2 732 481 701.9 504.5 674.8 530.5 653.1 575 616.1 633.5 589.7 688.3 582 712.5 578.6 712.1 578.6 726.7 580.5Z"/>
<path transform="translate(0,0)" style="fill:rgb(22, 19, 43)" stroke-linecap="round" d="M702.6 592.2C701 593.1 700.9 594.4 701.5 609.8 702.3 630.4 702.4 631 705.5 631 706.8 631 708.2 630.5 708.5 629.9 708.9 629.4 708.9 620.8 708.5 610.9 707.9 595.7 707.5 592.8 706.1 592.1 705.1 591.5 703.7 591.6 702.6 592.2Z"/>
<path transform="translate(0,0)" style="fill:rgb(22, 19, 43)" stroke-linecap="round" d="M660 594.4C659.5 595.7 659.3 597.6 659.6 598.6 659.8 599.7 665.2 652.6 671.6 716.3L683.1 832.1 676.8 838.8C667.1 849.1 663.1 858.9 663 872.1 663 890 673.7 906.7 690.5 914.7 697.3 917.9 699.3 918.4 707.9 918.8 718.6 919.3 726 917.8 733.9 913.4 736.3 912.1 738.6 911 739.1 911 739.6 911 773.8 926.7 815.1 946 856.5 965.2 891 981 891.7 981 894.8 981 897 978.9 897 976 897 973.4 892.1 969.7 830.2 925.2 793.4 898.8 762.4 876.6 761.2 875.9 759.6 874.9 759 873.5 759 871 758.9 859.5 752.7 845.7 743.8 837.4 736.8 831 730.4 827.5 721.9 825.6 718.6 824.8 715.6 824 715.5 823.8 715.3 823.6 704.7 772.4 692 710 679.3 647.6 668.5 595.5 668 594.2 666.6 591 661.3 591.1 660 594.4ZM723.8 844.9C737.7 852.1 744.6 866.6 740.6 880.5 738.2 888.6 730.6 896.2 722.5 898.6 703.6 904 684.1 891.3 681.4 871.8 679.9 861.3 686.9 849.4 697.5 844.3 701.8 842.2 703.6 841.9 711 842.3 717.3 842.5 720.6 843.2 723.8 844.9Z"/>
<path transform="translate(0,0)" style="fill:rgb(22, 19, 43)" stroke-linecap="round" d="M706.7 864.8C704.1 867.6 704.5 874.5 707.2 876.4 710.3 878.6 713.2 878.4 716.5 875.8 718.8 874 719.1 873.2 718.6 870.2 718.3 868.3 717.3 865.9 716.4 864.9 714.2 862.5 708.8 862.4 706.7 864.8Z"/>
<path transform="translate(0,0)" style="fill:rgb(22, 19, 43)" stroke-linecap="round" d="M844.9 634C844 634.5 842 637.3 840.5 640.2 839 643.1 836 648.1 833.9 651.2 829.5 657.6 829.1 659.5 831.9 660.9 834.8 662.5 838.3 658.6 845.4 645.8 847.4 642.2 849.8 638.9 850.6 638.6 851.5 638.2 852 637.1 851.8 635.8 851.5 633.2 847.7 632.3 844.9 634Z"/>
<path transform="translate(0,0)" style="fill:rgb(22, 19, 43)" stroke-linecap="round" d="M526.7 669.7C525.6 670.8 525.9 673.9 527.3 674.7 528.6 675.6 534.4 682.8 535.1 684.5 535.3 685 538.4 689.9 542 695.3 547.6 703.7 548.8 705 551 704.8 555.4 704.3 554.4 701.1 546 688.7 541.6 682.2 538 676.6 538 676.2 538 675.8 536.7 674 535.1 672.2 532.3 669.2 528.3 668 526.7 669.7Z"/>
<path transform="translate(0,0)" style="fill:rgb(22, 19, 43)" stroke-linecap="round" d="M946.4 740.6C943.7 742 940 744.4 938 745.9 936.1 747.5 933.4 749.3 932.1 750 930.7 750.7 928.7 752.1 927.6 753.1 926.5 754.2 925 755 924.3 755 923.6 755 922.4 756.1 921.8 757.5 920.9 759.6 920.9 760.4 922.3 761.7 923.8 763.2 924.2 763.2 927.5 761.4 929.5 760.4 931.9 758.8 932.8 758 935.3 755.8 946.7 748 947.5 748 948.9 748 955 742.7 955 741.4 955 740.7 954.1 739.6 953.1 739.1 951.7 738.3 950.1 738.6 946.4 740.6Z"/>
<path transform="translate(0,0)" style="fill:rgb(22, 19, 43)" stroke-linecap="round" d="M448.7 766.6C447.2 768.1 448.1 771.1 450.3 771.9 463 777.1 479.2 783 480.5 783 481.4 783 483 783.5 484.1 784.1 486.7 785.4 490 784.3 490 782.1 490 779.5 488.5 778.6 479 775.2 474.3 773.6 467.4 771 463.5 769.5 456 766.6 450 765.4 448.7 766.6Z"/>
<path transform="translate(0,0)" style="fill:rgb(22, 19, 43)" stroke-linecap="round" d="M948.3 857.1C946.6 858.8 946.7 859.5 948.5 861.3 949.6 862.5 952.8 862.8 961.7 862.9 968.2 863 976 863.2 979 863.5 982 863.8 986.9 864.2 989.9 864.5 996.2 865 999.2 863.8 998.8 860.7 998.5 858.8 997.7 858.4 992 857.8 988.4 857.5 977.4 856.9 967.5 856.5 953.4 856 949.2 856.1 948.3 857.1Z"/>
<path transform="translate(0,0)" style="fill:rgb(22, 19, 43)" stroke-linecap="round" d="M431.7 872.9C424.7 873.5 422.4 875 424 878 424.7 879.3 428 879.5 449.2 879.1 472.5 878.8 474.9 878.5 475 875.8 475 875.4 474.3 874.5 473.5 873.6 472.3 872.4 468.9 872.2 455.3 872.2 446 872.3 435.4 872.6 431.7 872.9Z"/>
<path transform="translate(0,0)" style="fill:rgb(22, 19, 43)" stroke-linecap="round" d="M943.6 971.2C941.5 972.4 941.6 975.7 943.8 976.8 944.7 977.3 948.7 978.5 952.5 979.4 956.4 980.4 962.9 982.3 967.2 983.7 971.4 985.1 975.5 986 976.4 985.7 978.9 984.7 978.4 980.3 975.8 979.5 974.5 979.1 972.2 978.2 970.5 977.5 964.3 974.7 945.2 970.3 943.6 971.2Z"/>
<path transform="translate(0,0)" style="fill:rgb(22, 19, 43)" stroke-linecap="round" d="M510.4 1012.9C504.5 1016.1 501.2 1018.3 491.7 1025.4 486.8 1029.1 485 1031 485.2 1032.5 485.8 1036.3 490.1 1035.5 497.1 1030.2 510 1020.4 511.5 1019.5 514.4 1018.4 518.2 1017.1 519.9 1014.6 518.4 1012.3 516.8 1009.7 515.9 1009.8 510.4 1012.9Z"/>
<path transform="translate(0,0)" style="fill:rgb(22, 19, 43)" stroke-linecap="round" d="M834.6 1082.5C833.9 1084.4 834.8 1086.9 837.1 1089.5 838.1 1090.6 841.9 1097.4 845.5 1104.5 849.2 1111.7 852.5 1117.9 853 1118.3 854.4 1119.8 858 1118 858 1115.9 858 1113.4 847.9 1093.1 843.2 1086.2 839.6 1080.9 835.9 1079.3 834.6 1082.5Z"/>
<path transform="translate(0,0)" style="fill:rgb(22, 19, 43)" stroke-linecap="round" d="M602.8 1103.7C602 1104.7 600.5 1109.1 599.6 1113.5 598.6 1117.9 596.9 1123.5 595.8 1125.8 593.8 1130.4 594 1132.7 596.5 1133.6 599.8 1134.9 602.3 1130.3 606 1116 606.6 1113.5 607.6 1110 608.2 1108.2 609.8 1103 606.1 1099.9 602.8 1103.7Z"/>
<path transform="translate(0,0)" style="fill:rgb(22, 19, 43)" stroke-linecap="round" d="M706.3 1119.6C706 1120.5 706.3 1131.4 707.1 1143.8 708.5 1166.1 708.5 1166.5 710.7 1166.8 714.7 1167.4 715.4 1163.9 714.1 1149 713.5 1141.7 713 1132.3 713 1128.1 713 1123.4 712.5 1119.9 711.8 1119.2 710.1 1117.5 707 1117.7 706.3 1119.6Z"/>
</svg>